<?xml version="1.0" encoding="UTF-8"?>
<!DOCTYPE svg PUBLIC "-//W3C//DTD SVG 1.1//EN" "http://www.w3.org/Graphics/SVG/1.1/DTD/svg11.dtd">
<svg xmlns="http://www.w3.org/2000/svg" version="1.1" width="180px" height="180px" style="shape-rendering:geometricPrecision; text-rendering:geometricPrecision; image-rendering:optimizeQuality; fill-rule:evenodd; clip-rule:evenodd" xmlns:xlink="http://www.w3.org/1999/xlink">
<g><path style="opacity:0.998" fill="#231f35" d="M 12.5,-0.5 C 63.8333,-0.5 115.167,-0.5 166.5,-0.5C 171.263,2.42781 175.263,6.26114 178.5,11C 177.288,12.1068 177.621,12.6068 179.5,12.5C 179.5,63.8333 179.5,115.167 179.5,166.5C 177.621,166.393 177.288,166.893 178.5,168C 175.263,172.739 171.263,176.572 166.5,179.5C 115.167,179.5 63.8333,179.5 12.5,179.5C 7.73657,176.572 3.73657,172.739 0.5,168C 1.7119,166.893 1.37857,166.393 -0.5,166.5C -0.5,115.167 -0.5,63.8333 -0.5,12.5C 1.37857,12.6068 1.7119,12.1068 0.5,11C 3.73657,6.26114 7.73657,2.42781 12.5,-0.5 Z"/></g>
<g><path style="opacity:1" fill="#a753f5" d="M 96.5,33.5 C 94.7155,34.956 92.7155,35.956 90.5,36.5C 90.719,37.675 90.3857,38.675 89.5,39.5C 84.1667,43.5 79.5,48.1667 75.5,53.5C 74.675,54.3857 73.675,54.719 72.5,54.5C 72.719,55.675 72.3857,56.675 71.5,57.5C 66.1667,61.5 61.5,66.1667 57.5,71.5C 56.675,72.3857 55.675,72.719 54.5,72.5C 54.719,73.675 54.3857,74.675 53.5,75.5C 48.1667,79.5 43.5,84.1667 39.5,89.5C 38.675,90.3857 37.675,90.719 36.5,90.5C 35.551,92.7373 34.8844,95.0706 34.5,97.5C 30.9546,95.1435 28.4546,92.1435 27,88.5C 47.5,68 68,47.5 88.5,27C 91.8049,28.1143 94.4716,30.2809 96.5,33.5 Z"/></g>
<g><path style="opacity:1" fill="#a34ef4" d="M 96.5,33.5 C 102.833,39.1667 108.833,45.1667 114.5,51.5C 113.883,51.6107 113.383,51.944 113,52.5C 110.838,48.6316 107.672,47.1316 103.5,48C 104.624,48.2492 105.624,48.7492 106.5,49.5C 104.427,51.2032 102.094,52.3699 99.5,53C 101.878,53.9745 101.544,54.6411 98.5,55C 98.9574,55.414 99.2907,55.914 99.5,56.5C 98.1667,56.8333 96.8333,57.1667 95.5,57.5C 96.0253,58.1924 96.6919,58.6924 97.5,59C 96.354,59.6449 95.354,60.4783 94.5,61.5C 93.109,60.3554 91.7757,60.3554 90.5,61.5C 91.376,62.2508 92.376,62.7508 93.5,63C 92.1667,63.3333 90.8333,63.6667 89.5,64C 89.8333,64.3333 90.1667,64.6667 90.5,65C 88.8333,65.3333 87.1667,65.6667 85.5,66C 86.624,66.2492 87.624,66.7492 88.5,67.5C 86.4269,69.2032 84.0936,70.3699 81.5,71C 83.8776,71.9745 83.5443,72.6411 80.5,73C 81.7112,73.8928 81.7112,74.7261 80.5,75.5C 79.3914,74.4104 78.3914,74.4104 77.5,75.5C 78.0253,76.1924 78.6919,76.6924 79.5,77C 78.354,77.6449 77.354,78.4783 76.5,79.5C 75.109,78.3554 73.7757,78.3554 72.5,79.5C 73.376,80.2508 74.376,80.7508 75.5,81C 73.5524,82.6182 70.8858,83.6182 67.5,84C 68.624,84.2492 69.624,84.7492 70.5,85.5C 68.4269,87.2032 66.0936,88.3699 63.5,89C 65.8776,89.9745 65.5443,90.6411 62.5,91C 62.9574,91.414 63.2907,91.914 63.5,92.5C 62.1667,92.8333 60.8333,93.1667 59.5,93.5C 60.0253,94.1924 60.6919,94.6924 61.5,95C 60.354,95.6449 59.354,96.4783 58.5,97.5C 57.109,96.3554 55.7757,96.3554 54.5,97.5C 55.376,98.2508 56.376,98.7508 57.5,99C 55.5524,100.618 52.8858,101.618 49.5,102C 50.624,102.249 51.624,102.749 52.5,103.5C 50.6317,104.913 48.6317,106.08 46.5,107C 48.1667,108.667 49.8333,110.333 51.5,112C 50.944,112.383 50.6107,112.883 50.5,113.5C 44.8333,108.5 39.5,103.167 34.5,97.5C 34.8844,95.0706 35.551,92.7373 36.5,90.5C 37.675,90.719 38.675,90.3857 39.5,89.5C 43.5,84.1667 48.1667,79.5 53.5,75.5C 54.3857,74.675 54.719,73.675 54.5,72.5C 55.675,72.719 56.675,72.3857 57.5,71.5C 61.5,66.1667 66.1667,61.5 71.5,57.5C 72.3857,56.675 72.719,55.675 72.5,54.5C 73.675,54.719 74.675,54.3857 75.5,53.5C 79.5,48.1667 84.1667,43.5 89.5,39.5C 90.3857,38.675 90.719,37.675 90.5,36.5C 92.7155,35.956 94.7155,34.956 96.5,33.5 Z"/></g>
<g><path style="opacity:1" fill="#9f47f1" d="M 114.5,51.5 C 117.167,53.5 119.5,55.8333 121.5,58.5C 118.634,58.6588 116.968,59.6588 116.5,61.5C 115.391,60.4104 114.391,60.4104 113.5,61.5C 114.025,62.1924 114.692,62.6924 115.5,63C 114.167,63.3333 112.833,63.6667 111.5,64C 112.167,64.3333 112.833,64.6667 113.5,65C 111.833,65.3333 110.167,65.6667 108.5,66C 109.624,66.2492 110.624,66.7492 111.5,67.5C 110.349,68.731 109.183,68.731 108,67.5C 107.383,68.4491 107.549,69.2825 108.5,70C 106.833,70.3333 105.167,70.6667 103.5,71C 104.5,71.3333 105.5,71.6667 106.5,72C 104.833,72.3333 103.167,72.6667 101.5,73C 102.308,73.3076 102.975,73.8076 103.5,74.5C 102.011,74.5331 100.678,75.0331 99.5,76C 101.878,76.9745 101.544,77.6411 98.5,78C 99.6956,78.6543 99.6956,79.1543 98.5,79.5C 97.3914,78.4104 96.3914,78.4104 95.5,79.5C 96.0253,80.1924 96.6919,80.6924 97.5,81C 96.1667,81.3333 94.8333,81.6667 93.5,82C 94.1667,82.3333 94.8333,82.6667 95.5,83C 93.8333,83.3333 92.1667,83.6667 90.5,84C 91.624,84.2492 92.624,84.7492 93.5,85.5C 92.3493,86.731 91.1827,86.731 90,85.5C 89.3828,86.4491 89.5494,87.2825 90.5,88C 88.8333,88.3333 87.1667,88.6667 85.5,89C 86.5,89.3333 87.5,89.6667 88.5,90C 86.8333,90.3333 85.1667,90.6667 83.5,91C 84.3081,91.3076 84.9747,91.8076 85.5,92.5C 84.011,92.5331 82.6776,93.0331 81.5,94C 83.8776,94.9745 83.5443,95.6411 80.5,96C 81.6956,96.6543 81.6956,97.1543 80.5,97.5C 79.3914,96.4104 78.3914,96.4104 77.5,97.5C 78.0253,98.1924 78.6919,98.6924 79.5,99C 78.1667,99.3333 76.8333,99.6667 75.5,100C 76.1667,100.333 76.8333,100.667 77.5,101C 75.8333,101.333 74.1667,101.667 72.5,102C 73.624,102.249 74.624,102.749 75.5,103.5C 74.3493,104.731 73.1827,104.731 72,103.5C 71.3828,104.449 71.5494,105.282 72.5,106C 70.8333,106.333 69.1667,106.667 67.5,107C 68.5,107.333 69.5,107.667 70.5,108C 68.8333,108.333 67.1667,108.667 65.5,109C 66.3081,109.308 66.9747,109.808 67.5,110.5C 66.011,110.533 64.6776,111.033 63.5,112C 65.8776,112.974 65.5443,113.641 62.5,114C 63.6956,114.654 63.6956,115.154 62.5,115.5C 61.3914,114.41 60.3914,114.41 59.5,115.5C 60.0253,116.192 60.6919,116.692 61.5,117C 59.3474,117.099 57.6808,117.933 56.5,119.5C 54.1667,117.833 52.1667,115.833 50.5,113.5C 50.6107,112.883 50.944,112.383 51.5,112C 49.8333,110.333 48.1667,108.667 46.5,107C 48.6317,106.08 50.6317,104.913 52.5,103.5C 51.624,102.749 50.624,102.249 49.5,102C 52.8858,101.618 55.5524,100.618 57.5,99C 56.376,98.7508 55.376,98.2508 54.5,97.5C 55.7757,96.3554 57.109,96.3554 58.5,97.5C 59.354,96.4783 60.354,95.6449 61.5,95C 60.6919,94.6924 60.0253,94.1924 59.5,93.5C 60.8333,93.1667 62.1667,92.8333 63.5,92.5C 63.2907,91.914 62.9574,91.414 62.5,91C 65.5443,90.6411 65.8776,89.9745 63.5,89C 66.0936,88.3699 68.4269,87.2032 70.5,85.5C 69.624,84.7492 68.624,84.2492 67.5,84C 70.8858,83.6182 73.5524,82.6182 75.5,81C 74.376,80.7508 73.376,80.2508 72.5,79.5C 73.7757,78.3554 75.109,78.3554 76.5,79.5C 77.354,78.4783 78.354,77.6449 79.5,77C 78.6919,76.6924 78.0253,76.1924 77.5,75.5C 78.3914,74.4104 79.3914,74.4104 80.5,75.5C 81.7112,74.7261 81.7112,73.8928 80.5,73C 83.5443,72.6411 83.8776,71.9745 81.5,71C 84.0936,70.3699 86.4269,69.2032 88.5,67.5C 87.624,66.7492 86.624,66.2492 85.5,66C 87.1667,65.6667 88.8333,65.3333 90.5,65C 90.1667,64.6667 89.8333,64.3333 89.5,64C 90.8333,63.6667 92.1667,63.3333 93.5,63C 92.376,62.7508 91.376,62.2508 90.5,61.5C 91.7757,60.3554 93.109,60.3554 94.5,61.5C 95.354,60.4783 96.354,59.6449 97.5,59C 96.6919,58.6924 96.0253,58.1924 95.5,57.5C 96.8333,57.1667 98.1667,56.8333 99.5,56.5C 99.2907,55.914 98.9574,55.414 98.5,55C 101.544,54.6411 101.878,53.9745 99.5,53C 102.094,52.3699 104.427,51.2032 106.5,49.5C 105.624,48.7492 104.624,48.2492 103.5,48C 107.672,47.1316 110.838,48.6316 113,52.5C 113.383,51.944 113.883,51.6107 114.5,51.5 Z"/></g>
<g><path style="opacity:1" fill="#9b41ef" d="M 121.5,58.5 C 125.5,61.8333 129.167,65.5 132.5,69.5C 130.586,70.1847 128.586,70.6847 126.5,71C 130.185,71.9145 129.852,72.5811 125.5,73C 126.711,73.8928 126.711,74.7261 125.5,75.5C 124.109,74.3554 122.776,74.3554 121.5,75.5C 122.376,76.2508 123.376,76.7508 124.5,77C 122.924,77.4396 121.59,78.273 120.5,79.5C 119.391,78.4104 118.391,78.4104 117.5,79.5C 118.025,80.1924 118.692,80.6924 119.5,81C 118.28,82.6303 116.28,83.6303 113.5,84C 114.167,84.3333 114.833,84.6667 115.5,85C 113.893,87.5153 111.56,88.8487 108.5,89C 112.185,89.9145 111.852,90.5811 107.5,91C 108.711,91.8928 108.711,92.7261 107.5,93.5C 106.109,92.3554 104.776,92.3554 103.5,93.5C 104.376,94.2508 105.376,94.7508 106.5,95C 104.924,95.4396 103.59,96.273 102.5,97.5C 101.391,96.4104 100.391,96.4104 99.5,97.5C 100.025,98.1924 100.692,98.6924 101.5,99C 100.28,100.63 98.2801,101.63 95.5,102C 96.1667,102.333 96.8333,102.667 97.5,103C 95.8931,105.515 93.5598,106.849 90.5,107C 94.1851,107.914 93.8518,108.581 89.5,109C 90.7112,109.893 90.7112,110.726 89.5,111.5C 88.109,110.355 86.7757,110.355 85.5,111.5C 86.376,112.251 87.376,112.751 88.5,113C 86.9238,113.44 85.5904,114.273 84.5,115.5C 83.3914,114.41 82.3914,114.41 81.5,115.5C 82.0253,116.192 82.6919,116.692 83.5,117C 82.2801,118.63 80.2801,119.63 77.5,120C 78.1667,120.333 78.8333,120.667 79.5,121C 77.8931,123.515 75.5598,124.849 72.5,125C 76.1851,125.914 75.8518,126.581 71.5,127C 72.7112,127.893 72.7112,128.726 71.5,129.5C 70.549,128.674 69.549,128.508 68.5,129C 69.5981,129.77 69.5981,130.603 68.5,131.5C 64.1667,127.833 60.1667,123.833 56.5,119.5C 57.6808,117.933 59.3474,117.099 61.5,117C 60.6919,116.692 60.0253,116.192 59.5,115.5C 60.3914,114.41 61.3914,114.41 62.5,115.5C 63.6956,115.154 63.6956,114.654 62.5,114C 65.5443,113.641 65.8776,112.974 63.5,112C 64.6776,111.033 66.011,110.533 67.5,110.5C 66.9747,109.808 66.3081,109.308 65.5,109C 67.1667,108.667 68.8333,108.333 70.5,108C 69.5,107.667 68.5,107.333 67.5,107C 69.1667,106.667 70.8333,106.333 72.5,106C 71.5494,105.282 71.3828,104.449 72,103.5C 73.1827,104.731 74.3493,104.731 75.5,103.5C 74.624,102.749 73.624,102.249 72.5,102C 74.1667,101.667 75.8333,101.333 77.5,101C 76.8333,100.667 76.1667,100.333 75.5,100C 76.8333,99.6667 78.1667,99.3333 79.5,99C 78.6919,98.6924 78.0253,98.1924 77.5,97.5C 78.3914,96.4104 79.3914,96.4104 80.5,97.5C 81.6956,97.1543 81.6956,96.6543 80.5,96C 83.5443,95.6411 83.8776,94.9745 81.5,94C 82.6776,93.0331 84.011,92.5331 85.5,92.5C 84.9747,91.8076 84.3081,91.3076 83.5,91C 85.1667,90.6667 86.8333,90.3333 88.5,90C 87.5,89.6667 86.5,89.3333 85.5,89C 87.1667,88.6667 88.8333,88.3333 90.5,88C 89.5494,87.2825 89.3828,86.4491 90,85.5C 91.1827,86.731 92.3493,86.731 93.5,85.5C 92.624,84.7492 91.624,84.2492 90.5,84C 92.1667,83.6667 93.8333,83.3333 95.5,83C 94.8333,82.6667 94.1667,82.3333 93.5,82C 94.8333,81.6667 96.1667,81.3333 97.5,81C 96.6919,80.6924 96.0253,80.1924 95.5,79.5C 96.3914,78.4104 97.3914,78.4104 98.5,79.5C 99.6956,79.1543 99.6956,78.6543 98.5,78C 101.544,77.6411 101.878,76.9745 99.5,76C 100.678,75.0331 102.011,74.5331 103.5,74.5C 102.975,73.8076 102.308,73.3076 101.5,73C 103.167,72.6667 104.833,72.3333 106.5,72C 105.5,71.6667 104.5,71.3333 103.5,71C 105.167,70.6667 106.833,70.3333 108.5,70C 107.549,69.2825 107.383,68.4491 108,67.5C 109.183,68.731 110.349,68.731 111.5,67.5C 110.624,66.7492 109.624,66.2492 108.5,66C 110.167,65.6667 111.833,65.3333 113.5,65C 112.833,64.6667 112.167,64.3333 111.5,64C 112.833,63.6667 114.167,63.3333 115.5,63C 114.692,62.6924 114.025,62.1924 113.5,61.5C 114.391,60.4104 115.391,60.4104 116.5,61.5C 116.968,59.6588 118.634,58.6588 121.5,58.5 Z"/></g>
<g><path style="opacity:1" fill="#983bec" d="M 132.5,69.5 C 136.5,72.8333 140.167,76.5 143.5,80.5C 141.155,82.3314 138.488,83.4981 135.5,84C 136.308,84.3076 136.975,84.8076 137.5,85.5C 136.603,85.6691 135.603,86.0024 134.5,86.5C 134.709,87.086 135.043,87.586 135.5,88C 134.167,88.3333 132.833,88.6667 131.5,89C 132.167,89.3333 132.833,89.6667 133.5,90C 132.167,90.3333 130.833,90.6667 129.5,91C 130.308,91.3076 130.975,91.8076 131.5,92.5C 129.883,92.6694 128.216,93.0028 126.5,93.5C 127.376,94.2508 128.376,94.7508 129.5,95C 128.167,95.3333 126.833,95.6667 125.5,96C 126.696,96.6543 126.696,97.1543 125.5,97.5C 124.109,96.3554 122.776,96.3554 121.5,97.5C 122.376,98.2508 123.376,98.7508 124.5,99C 122.833,99.3333 121.167,99.6667 119.5,100C 120.167,100.333 120.833,100.667 121.5,101C 120.167,101.333 118.833,101.667 117.5,102C 118.956,102.423 119.456,103.256 119,104.5C 118.586,104.043 118.086,103.709 117.5,103.5C 116.289,104.274 116.289,105.107 117.5,106C 116.167,106.333 114.833,106.667 113.5,107C 114.167,107.333 114.833,107.667 115.5,108C 114.167,108.333 112.833,108.667 111.5,109C 113.271,109.535 113.604,110.369 112.5,111.5C 111.109,110.355 109.776,110.355 108.5,111.5C 109.376,112.251 110.376,112.751 111.5,113C 110.167,113.333 108.833,113.667 107.5,114C 108.696,114.654 108.696,115.154 107.5,115.5C 106.109,114.355 104.776,114.355 103.5,115.5C 104.376,116.251 105.376,116.751 106.5,117C 104.833,117.333 103.167,117.667 101.5,118C 102.167,118.333 102.833,118.667 103.5,119C 102.167,119.333 100.833,119.667 99.5,120C 100.956,120.423 101.456,121.256 101,122.5C 100.586,122.043 100.086,121.709 99.5,121.5C 98.2888,122.274 98.2888,123.107 99.5,124C 98.1667,124.333 96.8333,124.667 95.5,125C 96.1667,125.333 96.8333,125.667 97.5,126C 96.1667,126.333 94.8333,126.667 93.5,127C 95.2705,127.535 95.6039,128.369 94.5,129.5C 93.109,128.355 91.7757,128.355 90.5,129.5C 91.376,130.251 92.376,130.751 93.5,131C 92.1667,131.333 90.8333,131.667 89.5,132C 90.6956,132.654 90.6956,133.154 89.5,133.5C 88.109,132.355 86.7757,132.355 85.5,133.5C 86.376,134.251 87.376,134.751 88.5,135C 86.8333,135.333 85.1667,135.667 83.5,136C 84.1667,136.333 84.8333,136.667 85.5,137C 84.1667,137.333 82.8333,137.667 81.5,138C 82.3081,138.308 82.9747,138.808 83.5,139.5C 82.6034,139.669 81.6034,140.002 80.5,140.5C 81.7914,141.527 81.7914,142.527 80.5,143.5C 76.1667,139.833 72.1667,135.833 68.5,131.5C 69.5981,130.603 69.5981,129.77 68.5,129C 69.549,128.508 70.549,128.674 71.5,129.5C 72.7112,128.726 72.7112,127.893 71.5,127C 75.8518,126.581 76.1851,125.914 72.5,125C 75.5598,124.849 77.8931,123.515 79.5,121C 78.8333,120.667 78.1667,120.333 77.5,120C 80.2801,119.63 82.2801,118.63 83.5,117C 82.6919,116.692 82.0253,116.192 81.5,115.5C 82.3914,114.41 83.3914,114.41 84.5,115.5C 85.5904,114.273 86.9238,113.44 88.5,113C 87.376,112.751 86.376,112.251 85.5,111.5C 86.7757,110.355 88.109,110.355 89.5,111.5C 90.7112,110.726 90.7112,109.893 89.5,109C 93.8518,108.581 94.1851,107.914 90.5,107C 93.5598,106.849 95.8931,105.515 97.5,103C 96.8333,102.667 96.1667,102.333 95.5,102C 98.2801,101.63 100.28,100.63 101.5,99C 100.692,98.6924 100.025,98.1924 99.5,97.5C 100.391,96.4104 101.391,96.4104 102.5,97.5C 103.59,96.273 104.924,95.4396 106.5,95C 105.376,94.7508 104.376,94.2508 103.5,93.5C 104.776,92.3554 106.109,92.3554 107.5,93.5C 108.711,92.7261 108.711,91.8928 107.5,91C 111.852,90.5811 112.185,89.9145 108.5,89C 111.56,88.8487 113.893,87.5153 115.5,85C 114.833,84.6667 114.167,84.3333 113.5,84C 116.28,83.6303 118.28,82.6303 119.5,81C 118.692,80.6924 118.025,80.1924 117.5,79.5C 118.391,78.4104 119.391,78.4104 120.5,79.5C 121.59,78.273 122.924,77.4396 124.5,77C 123.376,76.7508 122.376,76.2508 121.5,75.5C 122.776,74.3554 124.109,74.3554 125.5,75.5C 126.711,74.7261 126.711,73.8928 125.5,73C 129.852,72.5811 130.185,71.9145 126.5,71C 128.586,70.6847 130.586,70.1847 132.5,69.5 Z"/></g>
<g><path style="opacity:1" fill="#9435ea" d="M 143.5,80.5 C 147.373,83.1859 150.206,86.5193 152,90.5C 131.5,111 111,131.5 90.5,152C 86.5193,150.206 83.1859,147.373 80.5,143.5C 81.7914,142.527 81.7914,141.527 80.5,140.5C 81.6034,140.002 82.6034,139.669 83.5,139.5C 82.9747,138.808 82.3081,138.308 81.5,138C 82.8333,137.667 84.1667,137.333 85.5,137C 84.8333,136.667 84.1667,136.333 83.5,136C 85.1667,135.667 86.8333,135.333 88.5,135C 87.376,134.751 86.376,134.251 85.5,133.5C 86.7757,132.355 88.109,132.355 89.5,133.5C 90.6956,133.154 90.6956,132.654 89.5,132C 90.8333,131.667 92.1667,131.333 93.5,131C 92.376,130.751 91.376,130.251 90.5,129.5C 91.7757,128.355 93.109,128.355 94.5,129.5C 95.6039,128.369 95.2705,127.535 93.5,127C 94.8333,126.667 96.1667,126.333 97.5,126C 96.8333,125.667 96.1667,125.333 95.5,125C 96.8333,124.667 98.1667,124.333 99.5,124C 98.2888,123.107 98.2888,122.274 99.5,121.5C 100.086,121.709 100.586,122.043 101,122.5C 101.456,121.256 100.956,120.423 99.5,120C 100.833,119.667 102.167,119.333 103.5,119C 102.833,118.667 102.167,118.333 101.5,118C 103.167,117.667 104.833,117.333 106.5,117C 105.376,116.751 104.376,116.251 103.5,115.5C 104.776,114.355 106.109,114.355 107.5,115.5C 108.696,115.154 108.696,114.654 107.5,114C 108.833,113.667 110.167,113.333 111.5,113C 110.376,112.751 109.376,112.251 108.5,111.5C 109.776,110.355 111.109,110.355 112.5,111.5C 113.604,110.369 113.271,109.535 111.5,109C 112.833,108.667 114.167,108.333 115.5,108C 114.833,107.667 114.167,107.333 113.5,107C 114.833,106.667 116.167,106.333 117.5,106C 116.289,105.107 116.289,104.274 117.5,103.5C 118.086,103.709 118.586,104.043 119,104.5C 119.456,103.256 118.956,102.423 117.5,102C 118.833,101.667 120.167,101.333 121.5,101C 120.833,100.667 120.167,100.333 119.5,100C 121.167,99.6667 122.833,99.3333 124.5,99C 123.376,98.7508 122.376,98.2508 121.5,97.5C 122.776,96.3554 124.109,96.3554 125.5,97.5C 126.696,97.1543 126.696,96.6543 125.5,96C 126.833,95.6667 128.167,95.3333 129.5,95C 128.376,94.7508 127.376,94.2508 126.5,93.5C 128.216,93.0028 129.883,92.6694 131.5,92.5C 130.975,91.8076 130.308,91.3076 129.5,91C 130.833,90.6667 132.167,90.3333 133.5,90C 132.833,89.6667 132.167,89.3333 131.5,89C 132.833,88.6667 134.167,88.3333 135.5,88C 135.043,87.586 134.709,87.086 134.5,86.5C 135.603,86.0024 136.603,85.6691 137.5,85.5C 136.975,84.8076 136.308,84.3076 135.5,84C 138.488,83.4981 141.155,82.3314 143.5,80.5 Z"/></g>
</svg>
